<svg xmlns="http://www.w3.org/2000/svg" x="0px" y="0px" width="100" height="100" viewBox="0 0 50 50">
<path d="M25,17c-2.21,0-4,1.79-4,4s1.79,4,4,4s4-1.79,4-4S27.21,17,25,17z M25,17c-2.21,0-4,1.79-4,4s1.79,4,4,4s4-1.79,4-4 S27.21,17,25,17z M25,0C13.4,0,4,9.4,4,21s9.4,21,21,21v8c1,0,21-10,21-29C46,9.4,36.6,0,25,0z M32.5,27 c-1.61,0-2.49-0.87-2.96-2.09C28.44,26.19,26.81,27,25,27c-3.31,0-6-2.69-6-6s2.69-6,6-6c1.54,0,2.94,0.59,4,1.54V15h2v6 c0,4,1.01,4,1.5,4c1.47,0,2.5-1.65,2.5-4c0-5.42-4.58-10-10-10s-10,4.58-10,10s4.58,10,10,10c2.73,0,4.54-0.89,4.55-0.89l0.9,1.78 C30.36,31.94,28.2,33,25,33c-6.5,0-12-5.5-12-12S18.5,9,25,9s12,5.5,12,12C37,24.48,35.11,27,32.5,27z M25,17c-2.21,0-4,1.79-4,4 s1.79,4,4,4s4-1.79,4-4S27.21,17,25,17z"></path>
</svg>